<svg id="visual" viewBox="0 0 900 600" width="900" height="600" xmlns="http://www.w3.org/2000/svg" xmlns:xlink="http://www.w3.org/1999/xlink" version="1.1"><path d="M632 600L620 585.7C608 571.3 584 542.7 577.3 514.2C570.7 485.7 581.3 457.3 592.7 428.8C604 400.3 616 371.7 626.2 343C636.3 314.3 644.7 285.7 639 257C633.3 228.3 613.7 199.7 610.5 171.2C607.3 142.7 620.7 114.3 625.5 85.8C630.3 57.3 626.7 28.7 624.8 14.3L623 0L900 0L900 14.3C900 28.7 900 57.3 900 85.8C900 114.3 900 142.7 900 171.2C900 199.7 900 228.3 900 257C900 285.7 900 314.3 900 343C900 371.7 900 400.3 900 428.8C900 457.3 900 485.7 900 514.2C900 542.7 900 571.3 900 585.7L900 600Z" fill="#f36c6c"></path><path d="M650 600L658.2 585.7C666.3 571.3 682.7 542.7 683.5 514.2C684.3 485.7 669.7 457.3 657.2 428.8C644.7 400.3 634.3 371.7 635.8 343C637.3 314.3 650.7 285.7 651.5 257C652.3 228.3 640.7 199.7 637.8 171.2C635 142.7 641 114.3 640.7 85.8C640.3 57.3 633.7 28.7 630.3 14.3L627 0L900 0L900 14.3C900 28.7 900 57.3 900 85.8C900 114.3 900 142.7 900 171.2C900 199.7 900 228.3 900 257C900 285.7 900 314.3 900 343C900 371.7 900 400.3 900 428.8C900 457.3 900 485.7 900 514.2C900 542.7 900 571.3 900 585.7L900 600Z" fill="#ef5f5e"></path><path d="M730 600L728.7 585.7C727.3 571.3 724.7 542.7 717.7 514.2C710.7 485.7 699.3 457.3 704.3 428.8C709.3 400.3 730.7 371.7 743.5 343C756.3 314.3 760.7 285.7 747.3 257C734 228.3 703 199.7 702 171.2C701 142.7 730 114.3 729.8 85.8C729.7 57.3 700.3 28.7 685.7 14.3L671 0L900 0L900 14.3C900 28.7 900 57.3 900 85.8C900 114.3 900 142.7 900 171.2C900 199.7 900 228.3 900 257C900 285.7 900 314.3 900 343C900 371.7 900 400.3 900 428.8C900 457.3 900 485.7 900 514.2C900 542.7 900 571.3 900 585.7L900 600Z" fill="#eb5150"></path><path d="M776 600L780.2 585.7C784.3 571.3 792.7 542.7 784.5 514.2C776.3 485.7 751.7 457.3 742.8 428.8C734 400.3 741 371.7 749.2 343C757.3 314.3 766.7 285.7 775.3 257C784 228.3 792 199.7 784.3 171.2C776.7 142.7 753.3 114.3 753.2 85.8C753 57.3 776 28.7 787.5 14.3L799 0L900 0L900 14.3C900 28.7 900 57.3 900 85.8C900 114.3 900 142.7 900 171.2C900 199.7 900 228.3 900 257C900 285.7 900 314.3 900 343C900 371.7 900 400.3 900 428.8C900 457.3 900 485.7 900 514.2C900 542.7 900 571.3 900 585.7L900 600Z" fill="#e64241"></path><path d="M838 600L838.8 585.7C839.7 571.3 841.3 542.7 837 514.2C832.7 485.7 822.3 457.3 819.5 428.8C816.7 400.3 821.3 371.7 824.8 343C828.3 314.3 830.7 285.7 826.5 257C822.3 228.3 811.7 199.7 811.5 171.2C811.3 142.7 821.7 114.3 830.5 85.8C839.3 57.3 846.7 28.7 850.3 14.3L854 0L900 0L900 14.3C900 28.7 900 57.3 900 85.8C900 114.3 900 142.7 900 171.2C900 199.7 900 228.3 900 257C900 285.7 900 314.3 900 343C900 371.7 900 400.3 900 428.8C900 457.3 900 485.7 900 514.2C900 542.7 900 571.3 900 585.7L900 600Z" fill="#e13232"></path></svg>